<?xml version="1.0" encoding="utf-8"?>
<svg version="1.1" id="Capa_1" xmlns="http://www.w3.org/2000/svg" xmlns:xlink="http://www.w3.org/1999/xlink" x="0px" y="0px"
	 viewBox="0 0 512 512" style="enable-background:new 0 0 512 512;" xml:space="preserve">
<style type="text/css">
	.st0{fill:none;}
	.st1{fill:#F4FBFF;}
	.st2{fill:#E4F6FF;}
	.st3{fill:#8FDDC1;}
	.st4{fill:#FFE07D;}
	.st5{fill:#407093;}
	.st6{fill:#365E7D;}
</style>
<rect class="st0" width="512" height="512"/>
<g>
	<g>
		<g>
			<g>
				<g>
					<g>
						<g>
							<g>
								<path class="st1" d="M429.7,504.5H82.3c-11.7,0-21.2-9.5-21.2-21.2V28.7c0-11.7,9.5-21.2,21.2-21.2h347.4
									c11.7,0,21.2,9.5,21.2,21.2v454.6C450.9,495,441.4,504.5,429.7,504.5L429.7,504.5z"/>
							</g>
						</g>
					</g>
					<path class="st2" d="M429.7,7.5h-63.3c11.7,0,21.2,9.5,21.2,21.2v454.6c0,11.7-9.5,21.2-21.2,21.2h63.3
						c11.7,0,21.2-9.5,21.2-21.2V28.7C450.9,17,441.4,7.5,429.7,7.5L429.7,7.5z"/>
					<path class="st3" d="M231,7.5H82.3c-11.7,0-21.2,9.5-21.2,21.2v454.6c0,11.7,9.5,21.2,21.2,21.2H231V7.5z"/>
				</g>
			</g>
		</g>
	</g>
	<g>
		<g>
			<circle class="st4" cx="146.1" cy="116.1" r="52"/>
			<path class="st5" d="M146.1,128.4c-16.6,0-30.5,11-35,26.2c9.2,8.4,21.5,13.6,35,13.6c13.5,0,25.8-5.1,35-13.6
				C176.7,139.4,162.7,128.4,146.1,128.4z"/>
			<circle class="st6" cx="146.1" cy="114.6" r="18.4"/>
		</g>
	</g>
	<g>
		<path class="st4" d="M189.6,277.7h-86.9c-4.8,0-8.7-3.9-8.7-8.7v-21.4c0-4.8,3.9-8.7,8.7-8.7h86.9c4.8,0,8.7,3.9,8.7,8.7V269
			C198.3,273.8,194.4,277.7,189.6,277.7z"/>
		<path class="st4" d="M189.6,357.2h-86.9c-4.8,0-8.7-3.9-8.7-8.7v-21.4c0-4.8,3.9-8.7,8.7-8.7h86.9c4.8,0,8.7,3.9,8.7,8.7v21.4
			C198.3,353.3,194.4,357.2,189.6,357.2z"/>
		<path class="st4" d="M189.6,436.7h-86.9c-4.8,0-8.7-3.9-8.7-8.7v-21.4c0-4.8,3.9-8.7,8.7-8.7h86.9c4.8,0,8.7,3.9,8.7,8.7V428
			C198.3,432.8,194.4,436.7,189.6,436.7z"/>
	</g>
</g>
<path d="M410.9,243.9H270.2c-4.1,0-7.5,3.4-7.5,7.5s3.4,7.5,7.5,7.5h140.7c4.1,0,7.5-3.4,7.5-7.5S415.1,243.9,410.9,243.9z"/>
<path d="M270.2,305h70.4c4.1,0,7.5-3.4,7.5-7.5s-3.4-7.5-7.5-7.5h-70.4c-4.1,0-7.5,3.4-7.5,7.5S266.1,305,270.2,305z"/>
<path d="M410.9,336H270.2c-4.1,0-7.5,3.4-7.5,7.5s3.4,7.5,7.5,7.5h140.7c4.1,0,7.5-3.4,7.5-7.5S415.1,336,410.9,336z"/>
<path d="M418.4,389.5c0-4.1-3.4-7.5-7.5-7.5H270.2c-4.1,0-7.5,3.4-7.5,7.5s3.4,7.5,7.5,7.5h140.7C415.1,397,418.4,393.6,418.4,389.5
	z"/>
<path d="M270.2,429.2c-4.1,0-7.5,3.4-7.5,7.5s3.4,7.5,7.5,7.5h70.4c4.1,0,7.5-3.4,7.5-7.5s-3.4-7.5-7.5-7.5H270.2z"/>
<path d="M410.9,197.9H270.2c-4.1,0-7.5,3.4-7.5,7.5s3.4,7.5,7.5,7.5h140.7c4.1,0,7.5-3.4,7.5-7.5S415.1,197.9,410.9,197.9z"/>
<path d="M450.9,105.3c4.1,0,7.5-3.4,7.5-7.5V28.7c0-15.8-12.9-28.7-28.7-28.7H82.3C66.5,0,53.6,12.9,53.6,28.7v454.6
	c0,15.8,12.9,28.7,28.7,28.7h347.4c15.8,0,28.7-12.9,28.7-28.7V132.8c0-4.1-3.4-7.5-7.5-7.5s-7.5,3.4-7.5,7.5v350.4
	c0,7.6-6.1,13.7-13.7,13.7H238.5V15h191.2c7.6,0,13.7,6.1,13.7,13.7v69.1C443.4,101.9,446.8,105.3,450.9,105.3z M223.5,497H82.3
	c-7.6,0-13.7-6.1-13.7-13.7V28.7c0-7.6,6.1-13.7,13.7-13.7h141.2V497z"/>
<path d="M146.1,175.6c32.7,0,59.5-26.6,59.5-59.5c0-32.8-26.7-59.5-59.5-59.5s-59.5,26.7-59.5,59.5
	C86.6,148.9,113.4,175.6,146.1,175.6z M146.1,160.6c-9.7,0-18.7-3.1-26-8.5c3.1-6.3,8.5-11.4,15.1-14.1c3.3,1.6,7.1,2.5,11,2.5
	s7.6-0.9,11-2.5c6.5,2.7,11.9,7.8,15.1,14.1C164.8,157.4,155.9,160.6,146.1,160.6z M135.2,114.6c0-6,4.9-10.9,10.9-10.9
	c6,0,10.9,4.9,10.9,10.9c0,6-4.9,10.9-10.9,10.9S135.2,120.6,135.2,114.6z M146.1,71.6c24.5,0,44.5,20,44.5,44.5
	c0,9.2-2.8,17.7-7.6,24.8c-3.6-5.6-8.5-10.3-14.3-13.8c2.1-3.7,3.2-8,3.2-12.5c0-14.3-11.6-25.9-25.9-25.9s-25.9,11.6-25.9,25.9
	c0,4.5,1.2,8.8,3.2,12.5c-5.8,3.4-10.6,8.2-14.3,13.8c-4.8-7.1-7.6-15.6-7.6-24.8C101.7,91.6,121.6,71.6,146.1,71.6z"/>
<path d="M102.7,285.2h86.9c8.9,0,16.2-7.3,16.2-16.2v-21.4c0-8.9-7.3-16.2-16.2-16.2h-86.9c-8.9,0-16.2,7.3-16.2,16.2V269
	C86.5,278,93.7,285.2,102.7,285.2z M101.5,247.6c0-0.7,0.5-1.2,1.2-1.2h86.9c0.7,0,1.2,0.5,1.2,1.2V269c0,0.7-0.5,1.2-1.2,1.2h-86.9
	c-0.7,0-1.2-0.5-1.2-1.2L101.5,247.6z"/>
<path d="M102.7,364.7h7.6c4.1,0,7.5-3.4,7.5-7.5s-3.4-7.5-7.5-7.5h-7.6c-0.7,0-1.2-0.5-1.2-1.2v-21.4c0-0.7,0.5-1.2,1.2-1.2h86.9
	c0.7,0,1.2,0.5,1.2,1.2v21.4c0,0.7-0.5,1.2-1.2,1.2h-44.3c-4.1,0-7.5,3.4-7.5,7.5s3.4,7.5,7.5,7.5h44.3c8.9,0,16.2-7.3,16.2-16.2
	v-21.4c0-8.9-7.3-16.2-16.2-16.2h-86.9c-8.9,0-16.2,7.3-16.2,16.2v21.4C86.5,357.5,93.7,364.7,102.7,364.7z"/>
<path d="M102.7,444.2h86.9c8.9,0,16.2-7.3,16.2-16.2v-21.4c0-8.9-7.3-16.2-16.2-16.2h-86.9c-8.9,0-16.2,7.3-16.2,16.2V428
	C86.5,437,93.7,444.2,102.7,444.2z M101.5,406.6c0-0.7,0.5-1.2,1.2-1.2h86.9c0.7,0,1.2,0.5,1.2,1.2V428c0,0.7-0.5,1.2-1.2,1.2h-86.9
	c-0.7,0-1.2-0.5-1.2-1.2L101.5,406.6z"/>
<g>
	<path d="M282,151.7c-3.5-1.8-6.3-4.2-8.3-7.5l11.4-8.3c1.2,1.6,2.7,2.8,4.4,3.6c1.7,0.8,3.5,1.3,5.4,1.3c2.7,0,4.7-0.9,6.2-2.8
		c1.5-1.9,2.2-4.5,2.2-7.9V79.7h14.4v50.4c0,5.1-0.9,9.5-2.8,13.1c-1.8,3.6-4.5,6.4-8,8.3c-3.5,1.9-7.8,2.8-12.7,2.8
		C289.6,154.3,285.6,153.4,282,151.7z"/>
	<path d="M366.7,150.9c-4.1-2.3-7.2-5.4-9.5-9.5s-3.4-8.9-3.4-14.3v-20.9c0-5.4,1.1-10.2,3.4-14.3s5.4-7.3,9.5-9.5
		c4.1-2.3,8.8-3.4,14.1-3.4c5.3,0,10.1,1.1,14.1,3.4c4.1,2.3,7.2,5.4,9.5,9.5s3.4,8.9,3.4,14.3v20.9c0,5.4-1.1,10.2-3.4,14.3
		s-5.4,7.3-9.5,9.5c-4.1,2.3-8.8,3.4-14.1,3.4C375.5,154.3,370.8,153.2,366.7,150.9z M387.4,138.8c1.9-1.1,3.4-2.6,4.4-4.5
		c1-2,1.5-4.2,1.5-6.8v-21.6c0-2.6-0.5-4.8-1.5-6.8c-1-2-2.5-3.5-4.4-4.5c-1.9-1.1-4.1-1.6-6.6-1.6c-2.5,0-4.7,0.5-6.6,1.6
		c-1.9,1.1-3.4,2.6-4.4,4.5c-1,2-1.5,4.2-1.5,6.8v21.6c0,2.6,0.5,4.8,1.5,6.8c1,2,2.5,3.5,4.4,4.5c1.9,1.1,4.1,1.6,6.6,1.6
		C383.3,140.4,385.5,139.9,387.4,138.8z M378.7,133.1l7.4-9.4l28.5,21.6l-7.4,9.4L378.7,133.1z"/>
</g>
</svg>
